<svg xmlns="http://www.w3.org/2000/svg" xmlns:xlink="http://www.w3.org/1999/xlink" width="559" zoomAndPan="magnify" viewBox="0 0 419.25 297.749991" height="397" preserveAspectRatio="xMidYMid meet" version="1.0"><defs><clipPath id="e0318077fd"><path d="M 54 0.140625 L 352 0.140625 L 352 297.359375 L 54 297.359375 Z M 54 0.140625 " clip-rule="nonzero"/></clipPath><clipPath id="bb72590ae4"><path d="M 0.539062 0.140625 L 297.449219 0.140625 L 297.449219 297.050781 L 0.539062 297.050781 Z M 0.539062 0.140625 " clip-rule="nonzero"/></clipPath><clipPath id="9824fe4128"><path d="M 148.996094 0.140625 C 67.007812 0.140625 0.539062 66.605469 0.539062 148.597656 C 0.539062 230.585938 67.007812 297.050781 148.996094 297.050781 C 230.984375 297.050781 297.449219 230.585938 297.449219 148.597656 C 297.449219 66.605469 230.984375 0.140625 148.996094 0.140625 Z M 148.996094 0.140625 " clip-rule="nonzero"/></clipPath><clipPath id="e7b969735e"><path d="M 0.539062 0.140625 L 297.449219 0.140625 L 297.449219 297.050781 L 0.539062 297.050781 Z M 0.539062 0.140625 " clip-rule="nonzero"/></clipPath><clipPath id="912787807d"><path d="M 148.996094 0.140625 C 67.007812 0.140625 0.539062 66.605469 0.539062 148.597656 C 0.539062 230.585938 67.007812 297.050781 148.996094 297.050781 C 230.984375 297.050781 297.449219 230.585938 297.449219 148.597656 C 297.449219 66.605469 230.984375 0.140625 148.996094 0.140625 Z M 148.996094 0.140625 " clip-rule="nonzero"/></clipPath><clipPath id="c3def8f352"><rect x="0" width="298" y="0" height="298"/></clipPath><clipPath id="38596e1dca"><path d="M 45.265625 47.921875 L 252.507812 47.921875 L 252.507812 249.179688 L 45.265625 249.179688 Z M 45.265625 47.921875 " clip-rule="nonzero"/></clipPath><clipPath id="1311287d14"><rect x="0" width="298" y="0" height="298"/></clipPath></defs><g clip-path="url(#e0318077fd)"><g transform="matrix(1, 0, 0, 1, 54, 0.000000000000006772)"><g clip-path="url(#1311287d14)"><g clip-path="url(#bb72590ae4)"><g clip-path="url(#9824fe4128)"><g transform="matrix(1, 0, 0, 1, 0.000000000000007105, 0.000000000000006772)"><g clip-path="url(#c3def8f352)"><g clip-path="url(#e7b969735e)"><g clip-path="url(#912787807d)"><path fill="#fbf6ea" d="M 0.539062 0.140625 L 297.449219 0.140625 L 297.449219 297.050781 L 0.539062 297.050781 Z M 0.539062 0.140625 " fill-opacity="1" fill-rule="nonzero"/></g></g></g></g></g></g><g clip-path="url(#38596e1dca)"><rect x="-146.235" width="603.72" fill="#fbf6ea" height="428.759987" y="-65.504998" fill-opacity="1"/></g><path fill="#199f59" d="M 111.550781 66.035156 C 112.160156 66.015625 112.765625 66.007812 113.375 66.011719 L 113.957031 66.011719 C 114.59375 66.011719 115.230469 66.015625 115.871094 66.015625 L 117.191406 66.015625 C 118.351562 66.015625 119.515625 66.019531 120.675781 66.019531 C 121.863281 66.023438 123.046875 66.023438 124.230469 66.023438 C 126.558594 66.027344 128.882812 66.03125 131.210938 66.035156 L 131.210938 73.503906 L 133.863281 73.5 C 134.558594 73.496094 135.257812 73.496094 135.953125 73.496094 C 136.6875 73.496094 137.425781 73.492188 138.160156 73.492188 C 138.871094 73.488281 139.578125 73.488281 140.289062 73.488281 C 140.558594 73.488281 140.828125 73.484375 141.101562 73.484375 C 141.476562 73.484375 141.855469 73.484375 142.234375 73.484375 L 142.890625 73.480469 C 143.398438 73.503906 143.398438 73.503906 143.792969 73.703125 C 143.910156 74.097656 143.910156 74.097656 144.007812 74.609375 L 144.117188 75.167969 L 144.222656 75.753906 L 144.335938 76.339844 C 144.535156 77.402344 144.535156 77.402344 144.578125 77.832031 L 144.382812 78.222656 L 144.773438 78.222656 L 144.847656 78.699219 L 144.945312 79.328125 L 145.042969 79.953125 C 145.152344 80.574219 145.152344 80.574219 145.355469 81.121094 C 145.640625 82.011719 145.785156 82.917969 145.941406 83.839844 C 146.183594 85.207031 146.445312 86.5625 146.773438 87.914062 C 147.007812 88.953125 147.210938 89.996094 147.417969 91.039062 C 147.699219 92.476562 147.992188 93.910156 148.3125 95.339844 C 148.445312 95.925781 148.578125 96.511719 148.707031 97.097656 L 148.839844 97.691406 C 148.980469 98.332031 149.121094 98.972656 149.261719 99.617188 C 149.304688 99.820312 149.351562 100.023438 149.398438 100.230469 L 149.523438 100.8125 L 149.632812 101.328125 C 149.695312 101.863281 149.625 102.277344 149.492188 102.800781 L 149.886719 102.800781 C 150.765625 107.972656 150.574219 113.023438 149.199219 118.085938 L 149.058594 118.609375 C 148.902344 119.117188 148.902344 119.117188 148.6875 119.648438 C 148.488281 120.082031 148.488281 120.082031 148.511719 120.492188 L 148.117188 120.492188 L 148.023438 120.867188 C 147.734375 121.929688 147.382812 122.792969 146.757812 123.699219 C 146.507812 124.058594 146.507812 124.058594 146.347656 124.621094 L 145.953125 124.621094 L 145.894531 124.960938 C 145.628906 125.832031 144.953125 126.488281 144.382812 127.175781 L 144.003906 127.636719 C 143.324219 128.441406 143.324219 128.441406 143.003906 128.75 L 142.414062 128.945312 C 142.277344 129.207031 142.144531 129.46875 142.023438 129.734375 C 141.136719 130.808594 140.050781 131.554688 138.878906 132.289062 L 138.339844 132.640625 C 136.863281 133.601562 135.480469 134.417969 133.765625 134.84375 L 133.765625 135.238281 C 131.3125 136.140625 131.3125 136.140625 130.03125 136.023438 L 130.03125 136.417969 L 129.367188 136.503906 C 128.6875 136.570312 128.6875 136.570312 128.261719 136.8125 C 128.066406 137.136719 127.871094 137.464844 127.691406 137.796875 C 127.53125 138.085938 127.359375 138.371094 127.183594 138.648438 C 126.628906 139.617188 126.285156 140.679688 125.902344 141.726562 C 125.839844 141.886719 125.777344 142.050781 125.714844 142.21875 C 125.371094 143.15625 125.222656 144.039062 125.15625 145.035156 C 125.113281 145.460938 125.113281 145.460938 124.917969 146.050781 C 124.6875 147.945312 124.695312 149.851562 124.695312 151.753906 C 124.695312 152.0625 124.695312 152.367188 124.695312 152.675781 C 124.695312 153.5 124.695312 154.328125 124.695312 155.152344 C 124.695312 156.019531 124.695312 156.886719 124.695312 157.753906 C 124.695312 159.207031 124.695312 160.660156 124.695312 162.113281 C 124.695312 163.792969 124.695312 165.472656 124.695312 167.152344 C 124.695312 168.597656 124.695312 170.042969 124.695312 171.488281 C 124.695312 172.347656 124.695312 173.210938 124.695312 174.074219 C 124.695312 174.882812 124.695312 175.691406 124.695312 176.5 C 124.695312 176.796875 124.695312 177.09375 124.695312 177.386719 C 124.695312 177.792969 124.695312 178.199219 124.695312 178.601562 L 124.695312 179.289062 C 124.71875 179.785156 124.78125 180.179688 124.917969 180.652344 C 124.976562 181.027344 125.035156 181.40625 125.09375 181.78125 C 125.492188 184.265625 126.269531 186.601562 127.671875 188.714844 C 128.195312 189.203125 128.195312 189.203125 128.652344 189.5 L 128.652344 189.894531 C 130.835938 190.402344 133.027344 190.847656 135.226562 191.269531 C 139.183594 192.03125 139.183594 192.03125 140.460938 192.289062 L 140.902344 192.375 C 141.746094 192.546875 142.457031 192.796875 143.203125 193.234375 C 143.496094 193.679688 143.496094 193.679688 143.59375 194.21875 C 143.421875 194.96875 143.421875 194.96875 143.203125 195.59375 L 142.808594 195.59375 L 142.808594 195.988281 C 142.191406 196.117188 141.574219 196.242188 140.953125 196.367188 L 140.429688 196.476562 L 139.910156 196.582031 L 139.4375 196.679688 C 137.777344 196.960938 136.15625 197 134.476562 196.996094 L 133.691406 196.996094 C 132.984375 197 132.277344 197 131.574219 196.996094 C 130.828125 196.996094 130.085938 196.996094 129.339844 196.996094 C 128.089844 197 126.839844 196.996094 125.585938 196.996094 C 124.152344 196.996094 122.714844 196.996094 121.277344 196.996094 C 120.035156 196.996094 118.796875 197 117.554688 196.996094 C 116.816406 196.996094 116.078125 196.996094 115.34375 196.996094 C 110.082031 197 110.082031 197 107.804688 196.894531 L 107.371094 196.878906 C 106.488281 196.828125 105.707031 196.648438 104.863281 196.382812 L 104.363281 196.253906 C 103.917969 196.132812 103.511719 195.996094 103.09375 195.792969 C 102.679688 195.238281 102.679688 195.238281 102.503906 194.613281 C 102.503906 193.984375 102.503906 193.984375 102.703125 193.433594 C 103.703125 192.558594 105.335938 192.300781 106.613281 192.050781 C 106.945312 191.988281 107.277344 191.929688 107.609375 191.871094 L 108.152344 191.773438 C 108.71875 191.667969 109.285156 191.566406 109.855469 191.464844 C 114.199219 190.9375 114.199219 190.9375 118.039062 189.105469 C 118.828125 188.320312 119.441406 187.414062 119.820312 186.367188 C 121.101562 181.574219 121.078125 176.519531 121.058594 171.59375 C 121.058594 170.8125 121.058594 170.027344 121.058594 169.246094 C 121.058594 167.929688 121.054688 166.617188 121.050781 165.304688 C 121.046875 163.800781 121.046875 162.300781 121.050781 160.796875 C 121.050781 159.332031 121.050781 157.863281 121.046875 156.398438 C 121.046875 155.78125 121.046875 155.167969 121.046875 154.550781 C 121.242188 145.96875 121.242188 145.96875 119.019531 137.792969 C 118.632812 137.21875 118.3125 136.753906 117.683594 136.4375 C 117.285156 136.292969 116.886719 136.179688 116.476562 136.074219 C 116.203125 135.996094 115.933594 135.921875 115.660156 135.84375 L 115.269531 135.738281 C 114.742188 135.589844 114.226562 135.414062 113.710938 135.238281 L 113.710938 134.84375 L 113.308594 134.730469 L 112.777344 134.574219 L 112.253906 134.421875 C 111.792969 134.269531 111.386719 134.089844 110.960938 133.863281 L 110.960938 133.46875 L 110.371094 133.46875 L 110.371094 133.074219 L 109.78125 133.074219 L 109.78125 132.683594 L 109.425781 132.609375 C 108.992188 132.484375 108.992188 132.484375 108.402344 132.09375 L 108.402344 131.699219 L 107.964844 131.554688 C 107.359375 131.277344 107.023438 130.972656 106.5625 130.496094 L 106.097656 130.019531 C 102.976562 126.664062 100.453125 122.839844 99.359375 118.332031 C 97.785156 111.160156 98.945312 104.355469 100.648438 97.324219 C 100.894531 96.3125 101.101562 95.292969 101.300781 94.273438 C 102.035156 90.535156 102.90625 86.824219 103.785156 83.121094 C 104.316406 80.890625 104.8125 78.652344 105.277344 76.40625 L 105.410156 75.769531 L 105.523438 75.21875 C 105.664062 74.636719 105.855469 74.070312 106.042969 73.503906 L 109.976562 73.308594 L 110.171875 71.539062 C 110.253906 71.09375 110.347656 70.652344 110.445312 70.210938 L 110.601562 69.507812 L 110.761719 68.789062 L 110.925781 68.050781 C 111.222656 66.71875 111.222656 66.71875 111.351562 66.230469 Z M 111.550781 66.035156 " fill-opacity="1" fill-rule="nonzero"/><path fill="#e43d3b" d="M 172.496094 66.035156 C 175.105469 66.03125 177.71875 66.027344 180.328125 66.023438 C 181.542969 66.023438 182.753906 66.023438 183.964844 66.019531 C 185.136719 66.019531 186.304688 66.015625 187.472656 66.015625 C 187.921875 66.015625 188.367188 66.015625 188.816406 66.015625 C 189.4375 66.011719 190.0625 66.011719 190.6875 66.011719 L 191.253906 66.011719 C 191.683594 66.011719 192.117188 66.023438 192.550781 66.035156 L 192.746094 66.230469 C 192.8125 66.492188 192.867188 66.757812 192.917969 67.019531 L 193.011719 67.515625 L 193.113281 68.050781 C 193.386719 69.449219 193.679688 70.835938 194.019531 72.222656 C 194.121094 72.71875 194.121094 72.71875 194.121094 73.503906 L 197.660156 73.503906 C 198.296875 75.328125 198.753906 77.164062 199.125 79.058594 C 199.316406 80.054688 199.542969 81.039062 199.800781 82.019531 C 200.167969 83.429688 200.441406 84.851562 200.707031 86.285156 C 201.019531 87.945312 201.367188 89.578125 201.792969 91.210938 C 202.113281 92.460938 202.34375 93.730469 202.589844 94.996094 C 202.839844 96.28125 203.132812 97.558594 203.441406 98.832031 C 204.238281 102.144531 204.847656 105.394531 205.09375 108.796875 C 205.128906 109.242188 205.167969 109.683594 205.210938 110.125 C 205.359375 111.757812 205.234375 113.183594 204.933594 114.792969 C 204.890625 115.09375 204.847656 115.394531 204.804688 115.699219 C 204.449219 118.21875 203.785156 120.40625 202.773438 122.742188 L 202.574219 123.199219 C 202.199219 124.039062 201.792969 124.703125 201.199219 125.410156 L 201.003906 126 L 200.609375 126 L 200.523438 126.367188 C 200.414062 126.785156 200.414062 126.785156 200.214844 127.175781 L 199.824219 127.175781 L 199.675781 127.496094 C 199.136719 128.519531 198.582031 129.234375 197.660156 129.929688 L 197.210938 130.382812 C 195.929688 131.660156 194.550781 132.832031 192.941406 133.664062 C 192.539062 133.925781 192.140625 134.191406 191.742188 134.460938 C 191.371094 134.648438 191.371094 134.648438 190.582031 134.648438 L 190.582031 135.042969 C 189.878906 135.300781 189.175781 135.558594 188.46875 135.816406 L 187.863281 136.039062 L 187.28125 136.25 L 186.746094 136.449219 C 186.257812 136.613281 186.257812 136.613281 185.828125 136.6875 L 185.472656 136.8125 C 185.222656 137.148438 185.222656 137.148438 185.058594 137.578125 C 184.988281 137.730469 184.921875 137.886719 184.851562 138.046875 L 184.648438 138.542969 L 184.4375 139.03125 C 182.054688 144.605469 182.6875 151.914062 182.6875 157.832031 L 182.683594 158.621094 C 182.683594 160.003906 182.683594 161.382812 182.683594 162.765625 C 182.683594 164.035156 182.679688 165.304688 182.675781 166.578125 C 182.675781 167.683594 182.675781 168.789062 182.675781 169.894531 C 182.675781 170.546875 182.671875 171.203125 182.671875 171.855469 C 182.664062 174.945312 182.761719 177.980469 183.113281 181.046875 C 183.128906 181.195312 183.144531 181.34375 183.164062 181.496094 C 183.457031 184.109375 184.039062 186.195312 185.273438 188.515625 L 185.445312 188.953125 L 185.667969 189.304688 C 185.992188 189.445312 186.320312 189.574219 186.652344 189.695312 L 187.140625 189.890625 C 188.433594 190.382812 189.691406 190.691406 191.050781 190.917969 L 191.671875 191.03125 C 192.320312 191.144531 192.96875 191.257812 193.617188 191.367188 C 199.546875 192.390625 199.546875 192.390625 200.804688 193.039062 C 201.199219 193.628906 201.199219 193.628906 201.238281 194.074219 L 201.222656 194.550781 L 201.214844 195.03125 L 201.199219 195.398438 L 200.804688 195.398438 L 200.609375 195.988281 C 199.535156 196.496094 198.332031 196.648438 197.152344 196.734375 C 196.664062 196.769531 196.664062 196.769531 196.136719 196.875 C 195.488281 196.972656 194.878906 196.996094 194.226562 196.996094 L 193.460938 197 L 191.746094 197 C 190.949219 197.003906 190.152344 197.003906 189.355469 197.003906 L 187.863281 197.003906 C 186.121094 197.007812 184.382812 197.007812 182.644531 197.007812 C 181.023438 197.007812 179.40625 197.007812 177.785156 197.011719 C 176.394531 197.015625 175.003906 197.015625 173.609375 197.015625 C 172.78125 197.015625 171.949219 197.015625 171.117188 197.019531 C 170.335938 197.019531 169.554688 197.019531 168.773438 197.019531 C 168.488281 197.019531 168.203125 197.019531 167.917969 197.019531 C 166.492188 197.027344 165.210938 197.003906 163.84375 196.578125 C 163.296875 196.476562 162.746094 196.382812 162.195312 196.296875 C 161.660156 196.179688 161.195312 196.027344 160.699219 195.792969 C 160.429688 195.363281 160.429688 195.363281 160.304688 194.808594 C 160.332031 194.097656 160.332031 194.097656 160.503906 193.433594 C 161.3125 192.707031 162.21875 192.503906 163.253906 192.253906 C 164.472656 191.996094 165.695312 191.78125 166.917969 191.566406 L 167.890625 191.386719 L 169.800781 191.042969 L 170.265625 190.960938 C 170.574219 190.902344 170.878906 190.847656 171.183594 190.792969 C 171.617188 190.71875 172.046875 190.640625 172.480469 190.5625 L 173.226562 190.425781 C 174.328125 190.1875 175.105469 189.785156 175.972656 189.058594 C 177.398438 187.359375 178.191406 185.398438 178.578125 183.222656 C 179.015625 180.527344 179.210938 177.855469 179.207031 175.128906 L 179.210938 174.316406 C 179.210938 173.59375 179.214844 172.867188 179.214844 172.140625 L 179.214844 170.769531 C 179.214844 169.171875 179.21875 167.570312 179.214844 165.96875 C 179.214844 164.492188 179.21875 163.015625 179.222656 161.535156 C 179.222656 160.257812 179.226562 158.976562 179.226562 157.699219 C 179.226562 156.9375 179.226562 156.179688 179.226562 155.421875 C 179.34375 146.597656 179.34375 146.597656 176.484375 138.378906 C 176.28125 138.042969 176.070312 137.710938 175.859375 137.378906 L 175.640625 137.007812 L 175.640625 136.613281 L 175.0625 136.527344 C 172 136.027344 169.332031 134.914062 166.597656 133.46875 L 166.597656 133.074219 L 166.261719 133.011719 C 165.726562 132.855469 165.339844 132.613281 164.878906 132.300781 L 164.402344 131.988281 L 164.042969 131.699219 L 164.042969 131.304688 L 163.632812 131.1875 C 162.847656 130.8125 162.335938 130.269531 161.730469 129.648438 L 161.363281 129.273438 C 159.625 127.476562 158.222656 125.601562 156.964844 123.441406 L 156.691406 122.996094 C 154.421875 119.207031 153.644531 114.625 153.542969 110.277344 C 153.5 104.96875 154.511719 99.839844 155.617188 94.675781 C 156.097656 92.4375 156.554688 90.195312 157.019531 87.953125 C 157.171875 87.210938 157.328125 86.46875 157.480469 85.722656 C 157.917969 83.617188 158.355469 81.507812 158.777344 79.398438 L 158.964844 78.457031 C 159.078125 77.90625 159.1875 77.351562 159.296875 76.800781 L 159.441406 76.078125 C 159.480469 75.878906 159.519531 75.675781 159.5625 75.46875 C 159.71875 74.882812 159.71875 74.882812 160.304688 73.503906 L 172.300781 73.308594 Z M 172.496094 66.035156 " fill-opacity="1" fill-rule="nonzero"/><path fill="#2c201a" d="M 172.496094 66.035156 C 175.105469 66.03125 177.71875 66.027344 180.328125 66.023438 C 181.542969 66.023438 182.753906 66.023438 183.964844 66.019531 C 185.136719 66.019531 186.304688 66.015625 187.472656 66.015625 C 187.921875 66.015625 188.367188 66.015625 188.816406 66.015625 C 189.4375 66.011719 190.0625 66.011719 190.6875 66.011719 L 191.253906 66.011719 C 191.683594 66.011719 192.117188 66.023438 192.550781 66.035156 L 192.746094 66.230469 C 192.8125 66.492188 192.867188 66.757812 192.917969 67.019531 L 193.011719 67.515625 L 193.113281 68.050781 C 193.386719 69.449219 193.679688 70.835938 194.019531 72.222656 C 194.121094 72.71875 194.121094 72.71875 194.121094 73.503906 L 197.660156 73.503906 C 198.296875 75.328125 198.753906 77.164062 199.125 79.058594 C 199.316406 80.054688 199.542969 81.039062 199.800781 82.019531 C 200.167969 83.429688 200.441406 84.851562 200.707031 86.285156 C 201.019531 87.945312 201.367188 89.578125 201.792969 91.210938 C 202.113281 92.460938 202.34375 93.730469 202.589844 94.996094 C 202.839844 96.28125 203.132812 97.558594 203.441406 98.832031 C 204.238281 102.144531 204.847656 105.394531 205.09375 108.796875 C 205.128906 109.242188 205.167969 109.683594 205.210938 110.125 C 205.359375 111.757812 205.234375 113.183594 204.933594 114.792969 C 204.890625 115.09375 204.847656 115.394531 204.804688 115.699219 C 204.449219 118.21875 203.785156 120.40625 202.773438 122.742188 L 202.574219 123.199219 C 202.199219 124.039062 201.792969 124.703125 201.199219 125.410156 L 201.003906 126 L 200.609375 126 L 200.523438 126.367188 C 200.414062 126.785156 200.414062 126.785156 200.214844 127.175781 L 199.824219 127.175781 L 199.675781 127.496094 C 199.136719 128.519531 198.582031 129.234375 197.660156 129.929688 L 197.210938 130.382812 C 195.929688 131.660156 194.550781 132.832031 192.941406 133.664062 C 192.539062 133.925781 192.140625 134.191406 191.742188 134.460938 C 191.371094 134.648438 191.371094 134.648438 190.582031 134.648438 L 190.582031 135.042969 C 189.878906 135.300781 189.175781 135.558594 188.46875 135.816406 L 187.863281 136.039062 L 187.28125 136.25 L 186.746094 136.449219 C 186.257812 136.613281 186.257812 136.613281 185.828125 136.6875 L 185.472656 136.8125 C 185.222656 137.148438 185.222656 137.148438 185.058594 137.578125 C 184.988281 137.730469 184.921875 137.886719 184.851562 138.046875 L 184.648438 138.542969 L 184.4375 139.03125 C 182.054688 144.605469 182.6875 151.914062 182.6875 157.832031 L 182.683594 158.621094 C 182.683594 160.003906 182.683594 161.382812 182.683594 162.765625 C 182.683594 164.035156 182.679688 165.304688 182.675781 166.578125 C 182.675781 167.683594 182.675781 168.789062 182.675781 169.894531 C 182.675781 170.546875 182.671875 171.203125 182.671875 171.855469 C 182.664062 174.945312 182.761719 177.980469 183.113281 181.046875 C 183.128906 181.195312 183.144531 181.34375 183.164062 181.496094 C 183.457031 184.109375 184.039062 186.195312 185.273438 188.515625 L 185.445312 188.953125 L 185.667969 189.304688 C 185.992188 189.445312 186.320312 189.574219 186.652344 189.695312 L 187.140625 189.890625 C 188.433594 190.382812 189.691406 190.691406 191.050781 190.917969 L 191.671875 191.03125 C 192.320312 191.144531 192.96875 191.257812 193.617188 191.367188 C 199.546875 192.390625 199.546875 192.390625 200.804688 193.039062 C 201.199219 193.628906 201.199219 193.628906 201.238281 194.074219 L 201.222656 194.550781 L 201.214844 195.03125 L 201.199219 195.398438 L 200.804688 195.398438 L 200.609375 195.988281 C 199.535156 196.496094 198.332031 196.648438 197.152344 196.734375 C 196.664062 196.769531 196.664062 196.769531 196.136719 196.875 C 195.488281 196.972656 194.878906 196.996094 194.226562 196.996094 L 193.460938 197 L 191.746094 197 C 190.949219 197.003906 190.152344 197.003906 189.355469 197.003906 L 187.863281 197.003906 C 186.121094 197.007812 184.382812 197.007812 182.644531 197.007812 C 181.023438 197.007812 179.40625 197.007812 177.785156 197.011719 C 176.394531 197.015625 175.003906 197.015625 173.609375 197.015625 C 172.78125 197.015625 171.949219 197.015625 171.117188 197.019531 C 170.335938 197.019531 169.554688 197.019531 168.773438 197.019531 C 168.488281 197.019531 168.203125 197.019531 167.917969 197.019531 C 166.492188 197.027344 165.210938 197.003906 163.84375 196.578125 C 163.296875 196.476562 162.746094 196.382812 162.195312 196.296875 C 161.660156 196.179688 161.195312 196.027344 160.699219 195.792969 C 160.429688 195.363281 160.429688 195.363281 160.304688 194.808594 C 160.332031 194.097656 160.332031 194.097656 160.503906 193.433594 C 161.3125 192.707031 162.21875 192.503906 163.253906 192.253906 C 164.472656 191.996094 165.695312 191.78125 166.917969 191.566406 L 167.890625 191.386719 L 169.800781 191.042969 L 170.265625 190.960938 C 170.574219 190.902344 170.878906 190.847656 171.183594 190.792969 C 171.617188 190.71875 172.046875 190.640625 172.480469 190.5625 L 173.226562 190.425781 C 174.328125 190.1875 175.105469 189.785156 175.972656 189.058594 C 177.398438 187.359375 178.191406 185.398438 178.578125 183.222656 C 179.015625 180.527344 179.210938 177.855469 179.207031 175.128906 L 179.210938 174.316406 C 179.210938 173.59375 179.214844 172.867188 179.214844 172.140625 L 179.214844 170.769531 C 179.214844 169.171875 179.21875 167.570312 179.214844 165.96875 C 179.214844 164.492188 179.21875 163.015625 179.222656 161.535156 C 179.222656 160.257812 179.226562 158.976562 179.226562 157.699219 C 179.226562 156.9375 179.226562 156.179688 179.226562 155.421875 C 179.34375 146.597656 179.34375 146.597656 176.484375 138.378906 C 176.28125 138.042969 176.070312 137.710938 175.859375 137.378906 L 175.640625 137.007812 L 175.640625 136.613281 L 175.0625 136.527344 C 172 136.027344 169.332031 134.914062 166.597656 133.46875 L 166.597656 133.074219 L 166.261719 133.011719 C 165.726562 132.855469 165.339844 132.613281 164.878906 132.300781 L 164.402344 131.988281 L 164.042969 131.699219 L 164.042969 131.304688 L 163.632812 131.1875 C 162.847656 130.8125 162.335938 130.269531 161.730469 129.648438 L 161.363281 129.273438 C 159.625 127.476562 158.222656 125.601562 156.964844 123.441406 L 156.691406 122.996094 C 154.421875 119.207031 153.644531 114.625 153.542969 110.277344 C 153.5 104.96875 154.511719 99.839844 155.617188 94.675781 C 156.097656 92.4375 156.554688 90.195312 157.019531 87.953125 C 157.171875 87.210938 157.328125 86.46875 157.480469 85.722656 C 157.917969 83.617188 158.355469 81.507812 158.777344 79.398438 L 158.964844 78.457031 C 159.078125 77.90625 159.1875 77.351562 159.296875 76.800781 L 159.441406 76.078125 C 159.480469 75.878906 159.519531 75.675781 159.5625 75.46875 C 159.71875 74.882812 159.71875 74.882812 160.304688 73.503906 L 172.300781 73.308594 Z M 163.453125 77.832031 C 163.324219 78.261719 163.199219 78.691406 163.074219 79.121094 L 162.859375 79.84375 C 162.621094 80.757812 162.476562 81.664062 162.351562 82.601562 C 162.285156 83.058594 162.1875 83.476562 162.074219 83.925781 C 162.003906 84.273438 161.9375 84.621094 161.871094 84.96875 C 161.453125 87.097656 161.027344 89.21875 160.464844 91.316406 C 160.324219 91.910156 160.246094 92.488281 160.175781 93.09375 C 160.027344 94.132812 159.765625 95.152344 159.53125 96.175781 C 159.203125 97.617188 158.882812 99.054688 158.628906 100.511719 C 158.535156 101.03125 158.433594 101.550781 158.328125 102.066406 C 157.398438 106.890625 157.195312 112.191406 158.539062 116.953125 L 158.929688 116.953125 L 158.988281 117.550781 C 159.105469 118.375 159.421875 119.078125 159.804688 119.816406 C 159.90625 120.023438 159.90625 120.023438 160.015625 120.230469 C 161.566406 123.1875 163.78125 125.890625 166.402344 127.964844 L 166.855469 128.332031 L 167.1875 128.554688 L 167.582031 128.554688 L 167.582031 128.945312 L 168.171875 128.945312 L 168.171875 129.339844 L 168.652344 129.578125 L 169.289062 129.894531 L 169.917969 130.203125 C 170.304688 130.402344 170.683594 130.613281 171.058594 130.839844 C 171.644531 131.1875 172.230469 131.328125 172.890625 131.503906 L 173.433594 131.691406 C 177.089844 132.867188 181.183594 132.972656 184.925781 132.199219 C 188.363281 131.398438 191.636719 129.710938 194.238281 127.328125 C 196.972656 124.734375 198.984375 121.652344 200.089844 118.023438 C 201.253906 113.871094 201.335938 109.554688 200.488281 105.34375 C 200.378906 104.789062 200.285156 104.230469 200.191406 103.671875 C 200.144531 103.378906 200.085938 103.089844 200.019531 102.800781 L 199.824219 102.601562 C 199.714844 101.988281 199.613281 101.375 199.515625 100.757812 C 199.183594 98.757812 198.757812 96.785156 198.300781 94.8125 L 197.886719 93.039062 L 197.78125 92.582031 C 197.386719 90.867188 197.011719 89.148438 196.640625 87.425781 L 196.542969 86.964844 C 196.085938 84.851562 195.636719 82.738281 195.210938 80.617188 C 194.945312 79.300781 194.945312 79.300781 194.515625 78.027344 C 194.054688 77.796875 193.78125 77.804688 193.269531 77.796875 L 192.726562 77.792969 L 192.128906 77.789062 L 191.5 77.78125 C 190.808594 77.773438 190.113281 77.765625 189.421875 77.761719 L 187.960938 77.746094 C 186.933594 77.738281 185.902344 77.730469 184.875 77.722656 C 183.835938 77.710938 182.796875 77.703125 181.757812 77.691406 C 175.652344 77.628906 169.554688 77.617188 163.453125 77.832031 " fill-opacity="1" fill-rule="nonzero"/><path fill="#2c211b" d="M 111.550781 66.035156 C 112.160156 66.015625 112.765625 66.007812 113.375 66.011719 L 113.957031 66.011719 C 114.59375 66.011719 115.230469 66.015625 115.871094 66.015625 L 117.191406 66.015625 C 118.351562 66.015625 119.515625 66.019531 120.675781 66.019531 C 121.863281 66.023438 123.046875 66.023438 124.230469 66.023438 C 126.558594 66.027344 128.882812 66.03125 131.210938 66.035156 L 131.210938 73.503906 L 133.863281 73.5 C 134.558594 73.496094 135.257812 73.496094 135.953125 73.496094 C 136.6875 73.496094 137.425781 73.492188 138.160156 73.492188 C 138.871094 73.488281 139.578125 73.488281 140.289062 73.488281 C 140.558594 73.488281 140.828125 73.484375 141.101562 73.484375 C 141.476562 73.484375 141.855469 73.484375 142.234375 73.484375 L 142.890625 73.480469 C 143.398438 73.503906 143.398438 73.503906 143.792969 73.703125 C 143.910156 74.097656 143.910156 74.097656 144.007812 74.609375 L 144.117188 75.167969 L 144.222656 75.753906 L 144.335938 76.339844 C 144.535156 77.402344 144.535156 77.402344 144.578125 77.832031 L 144.382812 78.222656 L 144.773438 78.222656 L 144.847656 78.699219 L 144.945312 79.328125 L 145.042969 79.953125 C 145.152344 80.574219 145.152344 80.574219 145.355469 81.121094 C 145.640625 82.011719 145.785156 82.917969 145.941406 83.839844 C 146.183594 85.207031 146.445312 86.5625 146.773438 87.914062 C 147.007812 88.953125 147.210938 89.996094 147.417969 91.039062 C 147.699219 92.476562 147.992188 93.910156 148.3125 95.339844 C 148.445312 95.925781 148.578125 96.511719 148.707031 97.097656 L 148.839844 97.691406 C 148.980469 98.332031 149.121094 98.972656 149.261719 99.617188 C 149.304688 99.820312 149.351562 100.023438 149.398438 100.230469 L 149.523438 100.8125 L 149.632812 101.328125 C 149.695312 101.863281 149.625 102.277344 149.492188 102.800781 L 149.886719 102.800781 C 150.765625 107.972656 150.574219 113.023438 149.199219 118.085938 L 149.058594 118.609375 C 148.902344 119.117188 148.902344 119.117188 148.6875 119.648438 C 148.488281 120.082031 148.488281 120.082031 148.511719 120.492188 L 148.117188 120.492188 L 148.023438 120.867188 C 147.734375 121.929688 147.382812 122.792969 146.757812 123.699219 C 146.507812 124.058594 146.507812 124.058594 146.347656 124.621094 L 145.953125 124.621094 L 145.894531 124.960938 C 145.628906 125.832031 144.953125 126.488281 144.382812 127.175781 L 144.003906 127.636719 C 143.324219 128.441406 143.324219 128.441406 143.003906 128.75 L 142.414062 128.945312 C 142.277344 129.207031 142.144531 129.46875 142.023438 129.734375 C 141.136719 130.808594 140.050781 131.554688 138.878906 132.289062 L 138.339844 132.640625 C 136.863281 133.601562 135.480469 134.417969 133.765625 134.84375 L 133.765625 135.238281 C 131.3125 136.140625 131.3125 136.140625 130.03125 136.023438 L 130.03125 136.417969 L 129.367188 136.503906 C 128.6875 136.570312 128.6875 136.570312 128.261719 136.8125 C 128.066406 137.136719 127.871094 137.464844 127.691406 137.796875 C 127.53125 138.085938 127.359375 138.371094 127.183594 138.648438 C 126.628906 139.617188 126.285156 140.679688 125.902344 141.726562 C 125.839844 141.886719 125.777344 142.050781 125.714844 142.21875 C 125.371094 143.15625 125.222656 144.039062 125.15625 145.035156 C 125.113281 145.460938 125.113281 145.460938 124.917969 146.050781 C 124.6875 147.945312 124.695312 149.851562 124.695312 151.753906 C 124.695312 152.0625 124.695312 152.367188 124.695312 152.675781 C 124.695312 153.5 124.695312 154.328125 124.695312 155.152344 C 124.695312 156.019531 124.695312 156.886719 124.695312 157.753906 C 124.695312 159.207031 124.695312 160.660156 124.695312 162.113281 C 124.695312 163.792969 124.695312 165.472656 124.695312 167.152344 C 124.695312 168.597656 124.695312 170.042969 124.695312 171.488281 C 124.695312 172.347656 124.695312 173.210938 124.695312 174.074219 C 124.695312 174.882812 124.695312 175.691406 124.695312 176.5 C 124.695312 176.796875 124.695312 177.09375 124.695312 177.386719 C 124.695312 177.792969 124.695312 178.199219 124.695312 178.601562 L 124.695312 179.289062 C 124.71875 179.785156 124.78125 180.179688 124.917969 180.652344 C 124.976562 181.027344 125.035156 181.40625 125.09375 181.78125 C 125.492188 184.265625 126.269531 186.601562 127.671875 188.714844 C 128.195312 189.203125 128.195312 189.203125 128.652344 189.5 L 128.652344 189.894531 C 130.835938 190.402344 133.027344 190.847656 135.226562 191.269531 C 139.183594 192.03125 139.183594 192.03125 140.460938 192.289062 L 140.902344 192.375 C 141.746094 192.546875 142.457031 192.796875 143.203125 193.234375 C 143.496094 193.679688 143.496094 193.679688 143.59375 194.21875 C 143.421875 194.96875 143.421875 194.96875 143.203125 195.59375 L 142.808594 195.59375 L 142.808594 195.988281 C 142.191406 196.117188 141.574219 196.242188 140.953125 196.367188 L 140.429688 196.476562 L 139.910156 196.582031 L 139.4375 196.679688 C 137.777344 196.960938 136.15625 197 134.476562 196.996094 L 133.691406 196.996094 C 132.984375 197 132.277344 197 131.574219 196.996094 C 130.828125 196.996094 130.085938 196.996094 129.339844 196.996094 C 128.089844 197 126.839844 196.996094 125.585938 196.996094 C 124.152344 196.996094 122.714844 196.996094 121.277344 196.996094 C 120.035156 196.996094 118.796875 197 117.554688 196.996094 C 116.816406 196.996094 116.078125 196.996094 115.34375 196.996094 C 110.082031 197 110.082031 197 107.804688 196.894531 L 107.371094 196.878906 C 106.488281 196.828125 105.707031 196.648438 104.863281 196.382812 L 104.363281 196.253906 C 103.917969 196.132812 103.511719 195.996094 103.09375 195.792969 C 102.679688 195.238281 102.679688 195.238281 102.503906 194.613281 C 102.503906 193.984375 102.503906 193.984375 102.703125 193.433594 C 103.703125 192.558594 105.335938 192.300781 106.613281 192.050781 C 106.945312 191.988281 107.277344 191.929688 107.609375 191.871094 L 108.152344 191.773438 C 108.71875 191.667969 109.285156 191.566406 109.855469 191.464844 C 114.199219 190.9375 114.199219 190.9375 118.039062 189.105469 C 118.828125 188.320312 119.441406 187.414062 119.820312 186.367188 C 121.101562 181.574219 121.078125 176.519531 121.058594 171.59375 C 121.058594 170.8125 121.058594 170.027344 121.058594 169.246094 C 121.058594 167.929688 121.054688 166.617188 121.050781 165.304688 C 121.046875 163.800781 121.046875 162.300781 121.050781 160.796875 C 121.050781 159.332031 121.050781 157.863281 121.046875 156.398438 C 121.046875 155.78125 121.046875 155.167969 121.046875 154.550781 C 121.242188 145.96875 121.242188 145.96875 119.019531 137.792969 C 118.632812 137.21875 118.3125 136.753906 117.683594 136.4375 C 117.285156 136.292969 116.886719 136.179688 116.476562 136.074219 C 116.203125 135.996094 115.933594 135.921875 115.660156 135.84375 L 115.269531 135.738281 C 114.742188 135.589844 114.226562 135.414062 113.710938 135.238281 L 113.710938 134.84375 L 113.308594 134.730469 L 112.777344 134.574219 L 112.253906 134.421875 C 111.792969 134.269531 111.386719 134.089844 110.960938 133.863281 L 110.960938 133.46875 L 110.371094 133.46875 L 110.371094 133.074219 L 109.78125 133.074219 L 109.78125 132.683594 L 109.425781 132.609375 C 108.992188 132.484375 108.992188 132.484375 108.402344 132.09375 L 108.402344 131.699219 L 107.964844 131.554688 C 107.359375 131.277344 107.023438 130.972656 106.5625 130.496094 L 106.097656 130.019531 C 102.976562 126.664062 100.453125 122.839844 99.359375 118.332031 C 97.785156 111.160156 98.945312 104.355469 100.648438 97.324219 C 100.894531 96.3125 101.101562 95.292969 101.300781 94.273438 C 102.035156 90.535156 102.90625 86.824219 103.785156 83.121094 C 104.316406 80.890625 104.8125 78.652344 105.277344 76.40625 L 105.410156 75.769531 L 105.523438 75.21875 C 105.664062 74.636719 105.855469 74.070312 106.042969 73.503906 L 109.976562 73.308594 L 110.171875 71.539062 C 110.253906 71.09375 110.347656 70.652344 110.445312 70.210938 L 110.601562 69.507812 L 110.761719 68.789062 L 110.925781 68.050781 C 111.222656 66.71875 111.222656 66.71875 111.351562 66.230469 Z M 109.386719 77.832031 C 108.988281 78.847656 108.671875 79.828125 108.4375 80.898438 L 108.34375 81.320312 C 108.242188 81.769531 108.144531 82.222656 108.046875 82.671875 L 107.839844 83.613281 C 107.339844 85.910156 106.863281 88.210938 106.417969 90.519531 C 106.207031 91.617188 105.960938 92.679688 105.652344 93.753906 C 105.484375 94.539062 105.335938 95.328125 105.183594 96.113281 C 104.859375 97.773438 104.503906 99.40625 104.039062 101.03125 C 103.882812 101.621094 103.757812 102.195312 103.683594 102.800781 L 103.882812 103.191406 L 103.488281 103.191406 L 103.460938 103.539062 C 103.375 104.476562 103.257812 105.398438 103.09375 106.324219 C 102.351562 110.664062 102.667969 115.132812 104.078125 119.3125 C 105.085938 121.871094 106.566406 124.335938 108.601562 126.195312 L 109.066406 126.675781 C 111.867188 129.40625 115.042969 131.164062 118.816406 132.191406 C 122.449219 133.089844 126.554688 132.878906 130.148438 131.851562 C 133.988281 130.632812 137.378906 128.460938 140.167969 125.5625 C 142.957031 122.375 145.015625 118.664062 145.851562 114.492188 C 146.734375 109.402344 145.949219 104.453125 144.972656 99.457031 L 144.886719 99.027344 C 144.535156 97.214844 144.160156 95.40625 143.78125 93.601562 C 143.449219 92.019531 143.117188 90.441406 142.792969 88.859375 C 142.605469 87.957031 142.417969 87.050781 142.230469 86.148438 C 142.074219 85.394531 141.917969 84.636719 141.761719 83.882812 C 141.613281 83.164062 141.464844 82.449219 141.316406 81.730469 C 141.261719 81.460938 141.203125 81.195312 141.148438 80.925781 C 141.074219 80.558594 140.996094 80.1875 140.917969 79.816406 L 140.789062 79.183594 C 140.652344 78.640625 140.472656 78.148438 140.253906 77.632812 C 137.136719 77.628906 134.019531 77.625 130.902344 77.621094 L 130.207031 77.621094 C 123.265625 77.617188 116.328125 77.644531 109.386719 77.832031 " fill-opacity="1" fill-rule="nonzero"/><path fill="#fbf6ea" d="M 131.210938 77.632812 L 140.253906 77.632812 C 140.617188 78.722656 140.925781 79.679688 141.152344 80.78125 L 141.230469 81.164062 C 141.316406 81.578125 141.398438 81.992188 141.484375 82.40625 L 141.664062 83.289062 C 141.828125 84.078125 141.984375 84.863281 142.144531 85.648438 C 142.308594 86.464844 142.476562 87.28125 142.644531 88.09375 C 142.9375 89.542969 143.230469 90.992188 143.523438 92.4375 C 143.757812 93.59375 143.992188 94.746094 144.230469 95.898438 C 144.390625 96.699219 144.554688 97.496094 144.714844 98.292969 C 144.785156 98.644531 144.859375 98.992188 144.929688 99.34375 C 145.601562 102.632812 146.269531 105.929688 146.226562 109.300781 L 146.21875 110.007812 C 146.144531 114.203125 145.179688 118.074219 143.078125 121.730469 C 142.21875 123.132812 141.140625 124.378906 140.058594 125.605469 L 139.597656 126.128906 C 137.492188 128.359375 134.511719 130.296875 131.601562 131.304688 L 131.011719 131.304688 Z M 172.496094 77.832031 L 172.691406 131.109375 C 171.511719 131.109375 171.511719 131.109375 170.816406 130.773438 C 170.574219 130.628906 170.335938 130.484375 170.101562 130.335938 C 169.171875 129.765625 169.171875 129.765625 168.171875 129.339844 L 168.171875 128.945312 L 167.582031 128.945312 L 167.582031 128.554688 L 166.792969 128.160156 L 166.414062 128 C 165.851562 127.675781 165.472656 127.253906 165.023438 126.785156 L 164.667969 126.441406 C 162.261719 124.105469 160.050781 121.132812 158.929688 117.9375 C 158.902344 117.371094 158.902344 117.371094 158.929688 116.953125 L 158.539062 116.953125 C 157.179688 112.132812 157.398438 106.703125 158.339844 101.816406 C 158.371094 101.628906 158.398438 101.4375 158.429688 101.246094 C 158.585938 100.371094 158.789062 99.511719 158.992188 98.644531 C 159.597656 96.007812 160.160156 93.355469 160.601562 90.6875 C 160.699219 90.214844 160.699219 90.214844 160.875 89.632812 C 161.203125 88.519531 161.378906 87.367188 161.585938 86.222656 C 161.976562 84.070312 162.371094 81.925781 162.875 79.796875 L 162.976562 79.351562 C 163.230469 78.273438 163.230469 78.273438 163.453125 77.832031 C 164.582031 77.796875 165.710938 77.765625 166.84375 77.734375 C 167.226562 77.726562 167.609375 77.714844 167.996094 77.703125 C 168.546875 77.6875 169.101562 77.671875 169.652344 77.65625 L 170.171875 77.640625 L 170.660156 77.628906 L 171.089844 77.617188 C 171.511719 77.632812 171.511719 77.632812 172.496094 77.832031 " fill-opacity="1" fill-rule="nonzero"/><path fill="#2c201a" d="M 144.402344 149.964844 L 144.851562 149.964844 L 145.316406 149.972656 L 145.789062 149.972656 C 146.171875 149.976562 146.554688 149.980469 146.9375 149.984375 L 146.9375 150.375 L 147.441406 150.425781 C 148.257812 150.605469 148.785156 150.921875 149.492188 151.359375 L 149.492188 151.753906 L 149.855469 151.902344 C 150.464844 152.253906 150.703125 152.707031 151.058594 153.304688 C 151.316406 153.828125 151.414062 154.316406 151.460938 154.898438 L 151.851562 154.898438 L 152 154.382812 C 152.261719 153.675781 152.589844 153.148438 153.03125 152.539062 L 153.351562 152.046875 C 154.253906 151.097656 155.519531 150.382812 156.769531 149.984375 C 158.089844 149.855469 159.472656 149.789062 160.710938 150.328125 C 160.972656 150.46875 161.230469 150.617188 161.484375 150.769531 L 162.101562 151.113281 C 162.855469 151.703125 163.496094 152.339844 164.042969 153.128906 C 164.226562 153.816406 164.226562 153.816406 164.238281 154.308594 L 164.632812 154.308594 C 164.867188 155.152344 164.863281 155.945312 164.867188 156.816406 L 164.871094 157.277344 C 164.875 158.316406 164.722656 159.207031 164.433594 160.207031 L 164.042969 160.207031 L 163.96875 160.644531 C 163.609375 162.21875 162.484375 163.507812 161.484375 164.730469 L 161.074219 165.246094 C 160.15625 166.382812 159.203125 167.472656 158.214844 168.546875 C 157.4375 169.394531 156.671875 170.253906 155.957031 171.15625 C 155.539062 171.671875 155.074219 172.125 154.605469 172.59375 L 154.210938 173.085938 C 153.785156 173.617188 153.324219 174.082031 152.835938 174.558594 L 152.050781 175.34375 C 151.265625 175.082031 150.792969 174.753906 150.21875 174.164062 L 149.804688 173.746094 L 149.492188 173.378906 L 149.492188 172.984375 L 149.101562 172.984375 C 148.835938 172.726562 148.835938 172.726562 148.523438 172.347656 C 148.011719 171.742188 147.484375 171.148438 146.945312 170.570312 C 146.011719 169.566406 145.117188 168.53125 144.261719 167.460938 C 143.921875 167.046875 143.574219 166.640625 143.21875 166.242188 C 141.117188 163.863281 139.496094 161.480469 138.484375 158.4375 C 138.363281 156.828125 138.371094 155.320312 139.011719 153.816406 C 139.710938 152.488281 140.507812 151.59375 141.765625 150.769531 C 142.660156 150.222656 143.355469 149.957031 144.402344 149.964844 " fill-opacity="1" fill-rule="nonzero"/><path fill="#e43d3b" d="M 144.402344 149.964844 L 144.851562 149.964844 L 145.316406 149.972656 L 145.789062 149.972656 C 146.171875 149.976562 146.554688 149.980469 146.9375 149.984375 L 146.9375 150.375 L 147.441406 150.425781 C 148.257812 150.605469 148.785156 150.921875 149.492188 151.359375 L 149.492188 151.753906 L 149.855469 151.902344 C 150.339844 152.179688 150.511719 152.410156 150.796875 152.882812 L 151.039062 153.273438 C 151.65625 154.492188 151.707031 155.535156 151.683594 156.875 L 151.675781 157.464844 C 151.671875 158.109375 151.660156 158.753906 151.652344 159.398438 C 151.644531 159.847656 151.640625 160.296875 151.636719 160.742188 C 151.625 161.921875 151.609375 163.097656 151.59375 164.277344 C 151.574219 165.476562 151.5625 166.679688 151.550781 167.882812 C 151.519531 170.238281 151.492188 172.59375 151.460938 174.953125 C 150.894531 174.679688 150.476562 174.417969 150.035156 173.96875 L 149.722656 173.660156 L 149.492188 173.378906 L 149.492188 172.984375 L 149.101562 172.984375 C 148.835938 172.726562 148.835938 172.726562 148.523438 172.347656 C 148.011719 171.742188 147.484375 171.148438 146.945312 170.570312 C 146.011719 169.566406 145.117188 168.53125 144.261719 167.460938 C 143.921875 167.046875 143.574219 166.640625 143.21875 166.242188 C 141.117188 163.863281 139.496094 161.480469 138.484375 158.4375 C 138.363281 156.828125 138.371094 155.320312 139.011719 153.816406 C 139.710938 152.488281 140.507812 151.59375 141.765625 150.769531 C 142.660156 150.222656 143.355469 149.957031 144.402344 149.964844 M 172.496094 66.035156 C 175.105469 66.03125 177.71875 66.027344 180.328125 66.023438 C 181.542969 66.023438 182.753906 66.023438 183.964844 66.019531 C 185.136719 66.019531 186.304688 66.015625 187.472656 66.015625 C 187.921875 66.015625 188.367188 66.015625 188.816406 66.015625 C 189.4375 66.011719 190.0625 66.011719 190.6875 66.011719 L 191.253906 66.011719 C 191.683594 66.011719 192.117188 66.023438 192.550781 66.035156 L 192.746094 66.230469 C 192.8125 66.492188 192.867188 66.757812 192.917969 67.019531 L 193.011719 67.515625 L 193.113281 68.050781 C 193.386719 69.449219 193.679688 70.835938 194.019531 72.222656 C 194.121094 72.71875 194.121094 72.71875 194.121094 73.503906 C 191.335938 73.539062 188.546875 73.574219 185.761719 73.601562 C 184.464844 73.617188 183.171875 73.632812 181.878906 73.648438 C 180.628906 73.664062 179.382812 73.675781 178.132812 73.691406 C 177.65625 73.695312 177.179688 73.699219 176.703125 73.707031 C 176.035156 73.714844 175.371094 73.722656 174.703125 73.730469 L 174.101562 73.738281 C 173.921875 73.738281 173.738281 73.742188 173.554688 73.742188 L 173.074219 73.746094 L 172.691406 73.703125 L 172.300781 73.308594 C 172.277344 72.757812 172.28125 72.230469 172.304688 71.679688 L 172.320312 71.191406 C 172.335938 70.675781 172.355469 70.164062 172.371094 69.648438 C 172.382812 69.296875 172.394531 68.949219 172.40625 68.601562 C 172.433594 67.746094 172.464844 66.890625 172.496094 66.035156 " fill-opacity="1" fill-rule="nonzero"/><path fill="#199f59" d="M 111.550781 66.035156 C 112.160156 66.015625 112.765625 66.007812 113.375 66.011719 L 113.957031 66.011719 C 114.59375 66.011719 115.230469 66.015625 115.871094 66.015625 L 117.191406 66.015625 C 118.351562 66.015625 119.515625 66.019531 120.675781 66.019531 C 121.863281 66.023438 123.046875 66.023438 124.230469 66.023438 C 126.558594 66.027344 128.882812 66.03125 131.210938 66.035156 L 131.210938 73.503906 L 110.171875 73.503906 C 109.984375 72.554688 110.042969 71.964844 110.25 71.058594 C 110.28125 70.917969 110.3125 70.78125 110.34375 70.640625 C 110.40625 70.351562 110.472656 70.0625 110.539062 69.769531 C 110.640625 69.328125 110.738281 68.882812 110.835938 68.4375 L 111.027344 67.59375 L 111.117188 67.1875 C 111.191406 66.867188 111.269531 66.550781 111.351562 66.230469 Z M 111.550781 66.035156 " fill-opacity="1" fill-rule="nonzero"/><path fill="#2c211b" d="M 211.621094 212.699219 C 217.546875 212.308594 217.546875 212.308594 219.839844 213.410156 L 220.269531 213.683594 L 220.269531 214.074219 L 220.859375 214.074219 C 221.40625 214.625 221.777344 215.308594 222.101562 216.003906 C 222.328125 217.054688 222.410156 218.054688 222.082031 219.089844 C 221.761719 219.828125 221.421875 220.566406 220.859375 221.152344 L 220.464844 221.152344 L 220.464844 221.546875 L 219.089844 222.332031 C 219.363281 222.917969 219.683594 223.417969 220.070312 223.9375 C 220.242188 224.167969 220.242188 224.167969 220.417969 224.40625 C 220.539062 224.570312 220.660156 224.734375 220.785156 224.902344 L 221.53125 225.910156 C 221.941406 226.460938 222.355469 227.011719 222.765625 227.558594 L 223.195312 228.132812 L 223.5625 228.617188 L 223.808594 229.015625 L 223.808594 229.605469 C 222.945312 229.800781 222.136719 229.90625 221.261719 229.761719 C 220.753906 229.566406 220.515625 229.320312 220.15625 228.910156 C 219.585938 228.148438 219.082031 227.347656 218.589844 226.535156 C 218.179688 225.863281 217.71875 225.230469 217.257812 224.59375 C 217.007812 224.238281 216.765625 223.878906 216.535156 223.511719 L 216.535156 223.117188 L 213.980469 222.921875 L 213.78125 229.605469 L 211.226562 229.605469 C 211.222656 227.71875 211.21875 225.828125 211.214844 223.941406 C 211.214844 223.0625 211.214844 222.1875 211.210938 221.308594 C 211.210938 220.460938 211.207031 219.613281 211.207031 218.765625 C 211.207031 218.445312 211.207031 218.121094 211.207031 217.800781 C 211.195312 214.121094 211.195312 214.121094 211.421875 212.894531 Z M 163.058594 212.699219 C 169.597656 212.554688 169.597656 212.554688 172.101562 213.878906 L 172.101562 214.273438 L 172.691406 214.46875 C 173.25 215.230469 173.617188 216.058594 173.757812 216.992188 C 173.785156 217.996094 173.683594 218.894531 173.277344 219.820312 C 172.8125 220.667969 172.246094 221.242188 171.476562 221.816406 L 170.921875 222.136719 L 170.53125 222.136719 L 170.726562 223.117188 L 171.121094 223.117188 C 171.367188 223.402344 171.367188 223.402344 171.640625 223.800781 L 171.945312 224.238281 L 172.261719 224.703125 L 172.878906 225.597656 L 173.183594 226.035156 C 173.464844 226.4375 173.753906 226.839844 174.046875 227.234375 L 174.460938 227.835938 L 174.460938 228.230469 L 174.855469 228.230469 C 175.175781 228.699219 175.175781 228.699219 175.445312 229.214844 L 175.445312 229.605469 C 174.4375 229.710938 173.5 229.761719 172.496094 229.605469 C 171.835938 229.121094 171.464844 228.574219 171.121094 227.835938 C 170.988281 227.386719 170.988281 227.386719 170.921875 227.050781 L 170.53125 227.050781 C 170.269531 226.699219 170.027344 226.335938 169.792969 225.96875 C 169.652344 225.753906 169.507812 225.542969 169.363281 225.320312 C 169.121094 224.949219 168.890625 224.574219 168.667969 224.191406 C 168.382812 223.703125 168.382812 223.703125 167.777344 223.117188 L 165.613281 222.921875 L 165.417969 229.605469 L 162.863281 229.605469 C 162.859375 227.546875 162.855469 225.488281 162.851562 223.429688 C 162.851562 222.472656 162.851562 221.515625 162.847656 220.558594 C 162.84375 219.636719 162.84375 218.714844 162.84375 217.792969 C 162.84375 217.441406 162.84375 217.085938 162.839844 216.734375 C 162.839844 216.242188 162.839844 215.75 162.839844 215.253906 L 162.839844 214.816406 C 162.839844 214.085938 162.882812 213.410156 163.058594 212.699219 M 82.054688 212.722656 C 82.992188 213.132812 83.601562 214.082031 84.222656 214.863281 L 84.59375 215.324219 C 84.933594 215.757812 85.265625 216.191406 85.597656 216.632812 C 85.816406 216.910156 86.03125 217.1875 86.25 217.46875 C 86.734375 218.089844 87.210938 218.710938 87.691406 219.335938 C 88.5 220.390625 89.320312 221.4375 90.15625 222.472656 C 90.601562 223.035156 91.03125 223.617188 91.453125 224.199219 C 91.683594 224.523438 91.683594 224.523438 92.085938 224.691406 L 92.085938 212.699219 L 94.050781 212.699219 L 94.25 212.894531 C 94.265625 213.417969 94.273438 213.933594 94.269531 214.453125 L 94.269531 214.945312 C 94.269531 215.488281 94.269531 216.027344 94.269531 216.570312 L 94.265625 217.695312 C 94.265625 218.679688 94.265625 219.667969 94.261719 220.65625 C 94.261719 221.664062 94.257812 222.667969 94.257812 223.675781 C 94.257812 225.652344 94.253906 227.628906 94.25 229.605469 C 93.933594 229.621094 93.617188 229.628906 93.300781 229.636719 C 93.035156 229.644531 93.035156 229.644531 92.765625 229.652344 L 92.28125 229.605469 C 91.730469 229.136719 91.730469 229.136719 91.300781 228.488281 C 91.136719 228.25 90.96875 228.011719 90.804688 227.777344 L 90.558594 227.40625 C 90.191406 226.863281 89.785156 226.351562 89.382812 225.835938 L 88.894531 225.199219 C 87.367188 223.222656 85.839844 221.25 84.285156 219.296875 L 83.988281 218.929688 C 83.566406 218.398438 83.136719 217.890625 82.648438 217.417969 L 82.652344 218.101562 C 82.65625 218.933594 82.660156 219.765625 82.660156 220.597656 C 82.660156 220.960938 82.664062 221.320312 82.664062 221.683594 C 82.667969 222.199219 82.667969 222.71875 82.667969 223.234375 L 82.671875 223.726562 C 82.671875 224.113281 82.660156 224.5 82.648438 224.886719 L 82.453125 225.085938 C 82.4375 225.386719 82.433594 225.691406 82.441406 225.992188 L 82.445312 226.550781 L 82.460938 227.722656 L 82.464844 228.277344 L 82.472656 228.792969 C 82.453125 229.214844 82.453125 229.214844 82.257812 229.605469 L 80.488281 229.605469 L 80.488281 212.894531 C 81.050781 212.707031 81.464844 212.625 82.054688 212.722656 M 67.707031 212.699219 C 68.371094 212.625 68.371094 212.625 69.082031 212.699219 C 69.597656 213.109375 69.851562 213.445312 70.128906 214.046875 L 70.347656 214.675781 C 70.652344 215.511719 70.96875 216.320312 71.34375 217.121094 C 71.808594 218.117188 72.199219 219.132812 72.585938 220.160156 C 72.777344 220.648438 72.980469 221.132812 73.199219 221.609375 C 75.375 226.390625 75.375 226.390625 75.375 228.035156 L 75.769531 228.035156 L 75.964844 229.605469 C 75.585938 229.632812 75.203125 229.652344 74.820312 229.667969 L 74.179688 229.703125 C 73.988281 229.671875 73.800781 229.640625 73.605469 229.605469 C 72.960938 228.855469 72.703125 227.820312 72.390625 226.890625 L 72.226562 226.421875 C 72.09375 226.042969 71.964844 225.660156 71.835938 225.28125 C 71.09375 225.242188 70.351562 225.207031 69.613281 225.171875 L 68.984375 225.136719 C 67.621094 225.074219 66.308594 225.121094 64.953125 225.28125 L 64.71875 225.929688 L 64.402344 226.78125 L 64.246094 227.207031 C 63.9375 228.035156 63.597656 228.824219 63.1875 229.605469 L 60.828125 229.605469 C 61.300781 228.125 61.851562 226.679688 62.414062 225.230469 C 62.570312 224.828125 62.726562 224.429688 62.878906 224.03125 C 63.40625 222.671875 63.945312 221.316406 64.511719 219.972656 C 64.976562 218.867188 65.425781 217.753906 65.875 216.644531 L 66.164062 215.933594 C 66.65625 214.738281 66.65625 214.738281 67.121094 213.535156 C 67.3125 213.09375 67.3125 213.09375 67.707031 212.699219 M 198.25 212.699219 C 199.378906 212.625 199.378906 212.625 199.824219 212.699219 C 200.230469 213.003906 200.394531 213.25 200.601562 213.714844 L 200.746094 214.171875 L 200.894531 214.632812 C 201.003906 215.058594 201.003906 215.058594 201.003906 215.648438 L 201.394531 215.648438 L 201.5625 216.089844 C 202.042969 217.355469 202.546875 218.613281 203.066406 219.863281 C 204.738281 223.886719 204.738281 223.886719 204.738281 224.886719 L 205.132812 224.886719 C 205.363281 225.527344 205.589844 226.167969 205.820312 226.804688 L 206.019531 227.355469 L 206.207031 227.882812 L 206.382812 228.371094 C 206.507812 228.820312 206.507812 228.820312 206.507812 229.605469 L 203.953125 229.605469 L 203.628906 228.667969 C 203.488281 228.265625 203.34375 227.859375 203.203125 227.457031 L 202.988281 226.835938 C 202.921875 226.640625 202.851562 226.449219 202.78125 226.246094 L 202.589844 225.699219 L 202.378906 225.28125 C 201.691406 225.054688 201.121094 225.042969 200.398438 225.023438 L 199.992188 225.011719 C 199.5625 224.996094 199.132812 224.984375 198.707031 224.972656 L 197.832031 224.949219 C 197.121094 224.929688 196.40625 224.90625 195.695312 224.886719 L 195.578125 225.242188 C 195.222656 226.304688 194.871094 227.363281 194.515625 228.425781 L 194.121094 228.425781 L 193.730469 229.605469 L 191.566406 229.605469 C 191.871094 228.195312 192.382812 226.890625 192.917969 225.550781 L 193.207031 224.828125 C 193.40625 224.320312 193.609375 223.8125 193.8125 223.308594 C 194.070312 222.664062 194.324219 222.015625 194.582031 221.371094 C 195.507812 219.042969 196.433594 216.71875 197.402344 214.40625 L 197.597656 213.941406 C 198.03125 212.921875 198.03125 212.921875 198.25 212.699219 M 101.878906 212.636719 C 102.507812 212.699219 102.507812 212.699219 102.96875 213.007812 C 103.597656 213.585938 104.070312 214.21875 104.570312 214.910156 C 105.390625 216.03125 106.242188 217.128906 107.125 218.203125 C 108.195312 219.503906 109.21875 220.839844 110.222656 222.191406 L 110.488281 222.550781 C 110.6875 222.816406 110.882812 223.085938 111.078125 223.355469 L 111.398438 223.789062 L 111.683594 224.183594 C 111.929688 224.523438 111.929688 224.523438 112.335938 224.691406 L 112.335938 224.246094 C 112.332031 222.859375 112.328125 221.472656 112.324219 220.089844 C 112.324219 219.375 112.324219 218.664062 112.320312 217.949219 C 112.320312 217.261719 112.316406 216.578125 112.316406 215.890625 C 112.316406 215.5 112.316406 215.105469 112.3125 214.714844 L 112.3125 213.367188 L 112.335938 212.894531 L 112.53125 212.699219 L 114.300781 212.699219 L 114.300781 229.605469 L 112.53125 229.605469 C 112.097656 229.289062 112.097656 229.289062 111.78125 228.820312 L 111.394531 228.273438 L 110.960938 227.640625 C 110.59375 227.144531 110.222656 226.65625 109.855469 226.167969 L 109.246094 225.355469 C 108.242188 224.015625 107.210938 222.699219 106.179688 221.378906 C 103.578125 218.046875 103.578125 218.046875 103.292969 217.613281 L 103.292969 217.222656 L 102.898438 217.222656 L 102.898438 229.605469 L 100.933594 229.605469 C 100.726562 228.761719 100.710938 227.949219 100.71875 227.085938 L 100.71875 226.601562 C 100.734375 224.09375 100.785156 221.582031 100.828125 219.074219 L 100.863281 216.976562 C 100.886719 215.617188 100.910156 214.257812 100.933594 212.894531 C 101.328125 212.699219 101.328125 212.699219 101.878906 212.636719 M 147.921875 212.699219 L 157.359375 212.699219 L 157.359375 214.863281 L 150.671875 214.863281 L 150.671875 219.972656 L 156.375 220.171875 L 156.375 222.136719 L 150.871094 222.332031 C 150.742188 223.101562 150.648438 223.695312 150.652344 224.445312 L 150.65625 224.945312 L 150.660156 225.453125 L 150.664062 225.976562 C 150.667969 226.402344 150.667969 226.824219 150.671875 227.246094 L 151.257812 227.257812 C 151.976562 227.269531 152.695312 227.28125 153.414062 227.300781 C 153.722656 227.304688 154.035156 227.3125 154.34375 227.316406 C 154.792969 227.324219 155.238281 227.332031 155.683594 227.34375 L 156.105469 227.347656 C 156.644531 227.363281 157.078125 227.402344 157.558594 227.648438 L 157.75 228.035156 L 157.554688 229.605469 L 147.921875 229.605469 Z M 187.832031 213.289062 L 188.027344 213.484375 C 187.894531 215.113281 187.894531 215.113281 187.4375 215.84375 L 187.042969 215.683594 L 186.453125 215.453125 L 186.109375 215.292969 C 185.183594 214.898438 184.367188 214.769531 183.359375 214.804688 C 182.878906 214.847656 182.878906 214.847656 182.339844 215.109375 C 181.753906 215.601562 181.753906 215.601562 181.34375 216.238281 C 181.277344 216.832031 181.238281 217.238281 181.34375 217.8125 C 181.699219 218.398438 181.980469 218.707031 182.570312 219.050781 L 182.914062 219.1875 L 182.914062 219.582031 L 183.652344 219.800781 C 185.003906 220.253906 186.429688 220.8125 187.507812 221.757812 L 187.832031 222.136719 L 187.832031 222.53125 L 188.222656 222.53125 C 188.675781 223.730469 188.902344 224.738281 188.71875 226.019531 C 188.578125 226.628906 188.359375 227.109375 188.027344 227.640625 L 187.71875 228.144531 C 186.867188 228.996094 185.855469 229.449219 184.699219 229.761719 C 183.082031 230.074219 181.617188 230.089844 180.050781 229.570312 C 179.425781 229.332031 178.808594 229.082031 178.199219 228.820312 C 178.324219 227.996094 178.507812 227.246094 178.789062 226.460938 C 179.410156 226.597656 179.957031 226.816406 180.542969 227.0625 C 181.800781 227.523438 182.96875 227.59375 184.292969 227.445312 C 185.003906 227.246094 185.003906 227.246094 185.472656 226.855469 C 185.726562 226.4375 185.859375 226.113281 185.929688 225.632812 C 185.9375 225.175781 185.9375 224.75 185.863281 224.296875 C 185.5 223.820312 185.5 223.820312 185.078125 223.511719 L 185.078125 223.117188 L 184.652344 223.046875 C 183.011719 222.679688 181.3125 221.753906 179.964844 220.761719 C 179.351562 220.132812 179.03125 219.515625 178.726562 218.695312 C 178.515625 217.636719 178.519531 216.769531 178.824219 215.734375 C 179.132812 214.894531 179.507812 214.308594 180.164062 213.683594 C 182.722656 212.050781 185.085938 212.417969 187.832031 213.289062 M 129.832031 212.648438 L 130.347656 212.632812 C 130.816406 212.699219 130.816406 212.699219 131.136719 212.90625 C 131.535156 213.472656 131.746094 214.101562 131.972656 214.75 C 132.074219 215.035156 132.175781 215.320312 132.28125 215.605469 L 132.4375 216.03125 C 132.644531 216.59375 132.878906 217.148438 133.113281 217.699219 C 134.160156 220.171875 134.160156 220.171875 134.160156 221.152344 L 134.550781 221.152344 C 134.78125 221.800781 135.011719 222.445312 135.238281 223.09375 L 135.4375 223.652344 L 135.628906 224.1875 L 135.800781 224.679688 C 135.929688 225.085938 135.929688 225.085938 135.929688 225.476562 L 136.320312 225.476562 L 136.398438 225.046875 C 136.515625 224.507812 136.675781 224.03125 136.878906 223.515625 L 137.105469 222.929688 L 137.351562 222.296875 L 137.882812 220.929688 L 138.027344 220.566406 C 138.59375 219.105469 139.152344 217.640625 139.710938 216.175781 C 139.882812 215.722656 140.058594 215.269531 140.230469 214.816406 L 141.039062 212.699219 C 141.324219 212.695312 141.605469 212.691406 141.886719 212.6875 L 142.363281 212.679688 C 142.808594 212.699219 142.808594 212.699219 143.398438 212.894531 L 143.003906 214.46875 L 142.613281 214.46875 L 142.550781 215.066406 C 142.4375 215.863281 142.15625 216.527344 141.824219 217.257812 C 141.351562 218.292969 141.351562 218.292969 141.039062 219.382812 L 140.648438 219.382812 L 140.597656 219.960938 C 140.488281 220.707031 140.226562 221.308594 139.90625 221.984375 C 139.605469 222.65625 139.351562 223.339844 139.097656 224.027344 C 138.695312 225.117188 138.285156 226.203125 137.855469 227.285156 L 137.578125 227.992188 L 137.304688 228.625 L 137.085938 229.199219 L 136.714844 229.605469 C 136.117188 229.691406 135.542969 229.664062 134.945312 229.605469 L 134.75 229.117188 C 133.253906 225.355469 133.253906 225.355469 131.71875 221.605469 C 131.382812 220.789062 131.050781 219.96875 130.722656 219.148438 L 130.460938 218.492188 C 130.292969 218.066406 130.125 217.644531 129.957031 217.21875 C 129.492188 216.035156 128.984375 214.867188 128.441406 213.714844 C 128.261719 213.289062 128.261719 213.289062 128.261719 212.894531 C 128.832031 212.707031 129.238281 212.660156 129.832031 212.648438 M 227.519531 212.636719 L 228.035156 212.617188 L 228.527344 212.699219 C 229.136719 213.226562 229.503906 213.765625 229.875 214.476562 L 230.179688 215.050781 L 230.492188 215.648438 C 230.699219 216.027344 230.910156 216.40625 231.117188 216.785156 C 231.324219 217.160156 231.527344 217.535156 231.734375 217.910156 L 232.054688 218.488281 L 232.359375 219.046875 L 232.632812 219.542969 C 232.851562 219.972656 232.851562 219.972656 233.050781 220.5625 L 233.640625 220.367188 C 233.914062 219.964844 233.914062 219.964844 234.15625 219.460938 L 234.449219 218.890625 L 234.757812 218.277344 C 234.96875 217.863281 235.179688 217.453125 235.390625 217.039062 L 235.703125 216.425781 C 236.097656 215.648438 236.5 214.871094 236.90625 214.101562 L 237.097656 213.730469 C 237.246094 213.449219 237.40625 213.171875 237.570312 212.894531 C 238.03125 212.664062 238.324219 212.667969 238.835938 212.664062 L 239.300781 212.652344 C 239.734375 212.699219 239.734375 212.699219 240.324219 213.09375 C 239.710938 214.242188 239.082031 215.351562 238.355469 216.433594 C 237.660156 217.660156 237.011719 218.90625 236.390625 220.171875 L 236 220.171875 L 235.960938 220.5625 C 235.769531 221.265625 235.445312 221.773438 235.046875 222.378906 C 234.707031 222.898438 234.621094 223.117188 234.582031 223.757812 C 234.574219 224.03125 234.566406 224.304688 234.558594 224.578125 L 234.546875 225.011719 C 234.535156 225.46875 234.523438 225.929688 234.511719 226.386719 L 234.484375 227.320312 C 234.464844 228.082031 234.445312 228.84375 234.425781 229.605469 L 231.871094 229.605469 L 231.875 229.058594 C 232.0625 225.324219 232.0625 225.324219 231.195312 221.777344 C 230.929688 221.335938 230.644531 220.910156 230.335938 220.496094 C 229.886719 219.875 229.523438 219.199219 229.140625 218.535156 C 228.976562 218.257812 228.8125 217.980469 228.648438 217.703125 C 228.09375 216.765625 227.558594 215.820312 227.027344 214.875 L 226.765625 214.410156 C 226.167969 213.335938 226.167969 213.335938 226.167969 212.894531 C 226.644531 212.65625 226.988281 212.652344 227.519531 212.636719 " fill-opacity="1" fill-rule="nonzero"/><path fill="#b1ada9" d="M 99.558594 102.601562 C 99.367188 104.453125 99.367188 104.453125 99.164062 105.355469 C 98.507812 105.574219 97.941406 105.617188 97.253906 105.664062 L 96.425781 105.726562 L 95.980469 105.761719 C 91.410156 106.113281 86.738281 106.550781 82.285156 107.679688 C 81.535156 107.871094 80.863281 107.941406 80.09375 107.910156 C 79.640625 106.621094 79.4375 105.542969 79.503906 104.175781 C 85.679688 102.703125 93.226562 101.683594 99.558594 102.601562 " fill-opacity="1" fill-rule="nonzero"/><path fill="#7bbd94" d="M 128.0625 77.832031 C 127.753906 79.214844 127.398438 80.375 126.453125 81.457031 C 125.457031 82.464844 124.417969 83.238281 123.113281 83.800781 C 121.546875 84.058594 119.988281 84.117188 118.46875 83.617188 C 117.175781 83.070312 116.152344 82.359375 115.277344 81.253906 C 114.515625 80.132812 114.15625 79.152344 113.910156 77.832031 C 123.765625 77.476562 123.765625 77.476562 128.0625 77.832031 " fill-opacity="1" fill-rule="nonzero"/><path fill="#b1ada9" d="M 222.824219 102.800781 C 223.242188 103.421875 223.285156 103.683594 223.34375 104.410156 L 223.386719 104.945312 L 223.414062 105.355469 C 222.820312 105.691406 222.328125 105.820312 221.648438 105.886719 L 221.019531 105.953125 L 220.320312 106.019531 L 219.574219 106.089844 C 216.191406 106.414062 212.796875 106.628906 209.40625 106.855469 L 208.6875 106.90625 C 208.238281 106.9375 207.789062 106.96875 207.339844 106.996094 L 206.726562 107.039062 L 206.195312 107.074219 C 205.757812 107.121094 205.359375 107.203125 204.933594 107.320312 C 204.867188 107.050781 204.800781 106.78125 204.738281 106.511719 L 204.628906 106.054688 C 204.53125 105.484375 204.535156 104.945312 204.542969 104.371094 L 204.867188 104.355469 C 209.753906 104.117188 214.613281 103.847656 219.453125 103.117188 L 219.882812 103.054688 C 220.253906 103 220.628906 102.9375 221 102.878906 C 221.625 102.800781 222.195312 102.742188 222.824219 102.800781 " fill-opacity="1" fill-rule="nonzero"/><path fill="#7bbd94" d="M 108.796875 102.011719 C 114.714844 102.101562 120.972656 103.074219 126.6875 104.570312 L 126.6875 104.960938 L 126.191406 104.882812 C 125.058594 104.703125 123.925781 104.53125 122.785156 104.414062 C 122.476562 104.382812 122.171875 104.347656 121.867188 104.308594 L 121.378906 104.25 C 121.234375 104.230469 121.085938 104.210938 120.9375 104.191406 C 120.824219 104.1875 120.710938 104.179688 120.59375 104.175781 L 120.398438 104.371094 L 121.183594 104.765625 L 120.988281 105.945312 C 119.945312 105.988281 119.085938 105.921875 118.074219 105.636719 C 117.570312 105.535156 117.113281 105.539062 116.601562 105.550781 C 115.484375 105.570312 114.390625 105.492188 113.28125 105.378906 L 112.773438 105.332031 C 112.363281 105.289062 111.957031 105.226562 111.550781 105.160156 L 111.351562 104.765625 L 111.941406 104.570312 L 111.585938 104.554688 C 108.953125 104.445312 106.320312 104.316406 103.683594 104.175781 L 103.488281 103.191406 L 103.882812 103.191406 L 103.773438 102.8125 L 103.683594 102.40625 L 103.882812 102.210938 C 105.523438 102.050781 107.179688 102.359375 108.796875 102.601562 Z M 108.796875 102.011719 " fill-opacity="1" fill-rule="nonzero"/><path fill="#2c211b" d="M 121.183594 212.699219 L 123.542969 212.699219 L 123.542969 229.605469 L 120.988281 229.605469 C 120.980469 227.429688 120.980469 225.257812 120.976562 223.082031 C 120.976562 222.070312 120.972656 221.058594 120.972656 220.050781 C 120.96875 219.078125 120.96875 218.101562 120.96875 217.128906 C 120.96875 216.757812 120.964844 216.382812 120.964844 216.011719 C 120.964844 215.492188 120.964844 214.972656 120.964844 214.453125 L 120.960938 213.980469 C 120.960938 213.621094 120.972656 213.257812 120.988281 212.894531 Z M 121.183594 212.699219 " fill-opacity="1" fill-rule="nonzero"/><path fill="#f26e69" d="M 181.34375 77.832031 L 190.582031 77.832031 C 190.582031 79.992188 190.582031 79.992188 190.265625 80.855469 C 189.824219 81.605469 189.335938 82.058594 188.617188 82.550781 C 187.316406 83.066406 186.066406 83.085938 184.683594 82.941406 C 183.925781 82.734375 183.335938 82.453125 182.71875 81.960938 C 182.097656 81.234375 181.644531 80.507812 181.34375 79.601562 Z M 181.34375 77.832031 " fill-opacity="1" fill-rule="nonzero"/><path fill="#7bbd94" d="M 124.132812 69.964844 C 125.5 70.726562 126.480469 71.625 127.292969 72.957031 C 127.472656 73.308594 127.472656 73.308594 127.472656 73.503906 L 114.5 73.503906 L 114.5 72.914062 C 114.8125 72.558594 115.128906 72.253906 115.480469 71.933594 L 115.878906 71.546875 C 117.019531 70.46875 118.09375 69.800781 119.621094 69.425781 C 121.222656 69.289062 122.613281 69.398438 124.132812 69.964844 " fill-opacity="1" fill-rule="nonzero"/><path fill="#fbb7b3" d="M 183.503906 104.371094 C 185.378906 104.324219 187.210938 104.472656 189.070312 104.65625 C 189.625 104.707031 190.175781 104.761719 190.726562 104.8125 L 191.136719 104.851562 C 192.308594 104.964844 193.480469 105.039062 194.65625 105.105469 C 195.273438 105.15625 195.871094 105.25 196.480469 105.355469 C 197.148438 105.402344 197.8125 105.441406 198.480469 105.472656 C 199.207031 105.515625 199.902344 105.582031 200.609375 105.75 L 200.804688 107.714844 C 197.128906 107.523438 193.484375 107.210938 189.832031 106.769531 L 189.40625 106.71875 L 188.996094 106.667969 C 188.175781 106.570312 187.355469 106.488281 186.535156 106.425781 L 185.972656 106.378906 C 185.644531 106.351562 185.3125 106.328125 184.980469 106.308594 C 184.554688 106.277344 184.554688 106.277344 183.898438 106.140625 C 183.605469 105.796875 183.605469 105.796875 183.503906 105.355469 C 183.5 105.027344 183.5 104.699219 183.503906 104.371094 " fill-opacity="1" fill-rule="nonzero"/><path fill="#fcf7eb" d="M 214.175781 214.863281 C 215.382812 214.738281 216.671875 214.707031 217.835938 215.09375 C 218.527344 215.46875 218.867188 215.777344 219.285156 216.433594 C 219.570312 217.003906 219.535156 217.515625 219.523438 218.144531 C 219.464844 218.808594 219.269531 219.226562 218.894531 219.777344 C 218.492188 220.203125 218.21875 220.484375 217.714844 220.761719 C 217.0625 220.875 216.433594 220.855469 215.773438 220.820312 L 215.25 220.808594 C 214.824219 220.796875 214.402344 220.78125 213.980469 220.761719 C 213.550781 219.90625 213.746094 218.75 213.746094 217.8125 L 213.738281 217.085938 L 213.738281 216.398438 L 213.734375 215.761719 L 213.78125 215.253906 Z M 165.8125 214.863281 C 166.933594 214.679688 168.078125 214.710938 169.167969 215.046875 C 169.675781 215.285156 170.101562 215.484375 170.53125 215.84375 C 170.9375 216.628906 170.996094 217.296875 170.972656 218.164062 C 170.898438 218.816406 170.703125 219.234375 170.332031 219.777344 C 169.929688 220.203125 169.65625 220.484375 169.152344 220.761719 C 168.5 220.875 167.871094 220.855469 167.210938 220.820312 L 166.6875 220.808594 C 166.265625 220.796875 165.839844 220.78125 165.417969 220.761719 C 165.40625 219.886719 165.398438 219.015625 165.394531 218.144531 L 165.382812 217.390625 L 165.378906 216.671875 L 165.375 216.007812 C 165.417969 215.453125 165.417969 215.453125 165.8125 214.863281 " fill-opacity="1" fill-rule="nonzero"/><path fill="#fbb7b3" d="M 177.609375 102.011719 C 182.269531 101.960938 186.929688 102.023438 191.589844 102.195312 L 192.289062 102.222656 C 198.375 102.453125 198.375 102.453125 199.824219 102.601562 L 200.019531 102.800781 C 200.027344 103.125 200.027344 103.453125 200.019531 103.78125 C 194.839844 103.722656 189.671875 103.460938 184.5 103.179688 L 183.988281 103.152344 C 181.859375 103.035156 179.734375 102.917969 177.609375 102.800781 Z M 177.609375 102.011719 " fill-opacity="1" fill-rule="nonzero"/><path fill="#fcf7eb" d="M 68.296875 216.433594 L 68.691406 216.433594 C 69 217.292969 69.308594 218.148438 69.613281 219.007812 C 69.71875 219.296875 69.824219 219.589844 69.929688 219.882812 C 70.082031 220.300781 70.230469 220.71875 70.378906 221.136719 L 70.523438 221.535156 C 70.722656 222.089844 70.851562 222.523438 70.851562 223.117188 L 66.132812 223.117188 C 65.9375 222.136719 65.9375 222.136719 66.046875 221.652344 L 66.21875 221.191406 L 66.390625 220.71875 L 66.527344 220.367188 L 66.921875 220.367188 L 66.957031 219.824219 C 67.113281 218.699219 67.621094 217.65625 68.101562 216.632812 Z M 198.839844 216.238281 L 199.234375 216.433594 C 199.414062 216.832031 199.414062 216.832031 199.59375 217.351562 L 199.796875 217.921875 L 200.007812 218.523438 C 200.144531 218.910156 200.28125 219.296875 200.417969 219.6875 L 200.617188 220.246094 C 200.777344 220.683594 200.957031 221.113281 201.152344 221.539062 C 201.394531 222.136719 201.394531 222.136719 201.394531 222.921875 C 200.738281 223.070312 200.132812 223.144531 199.457031 223.136719 L 198.929688 223.136719 L 198.386719 223.132812 L 197.832031 223.128906 C 197.382812 223.125 196.929688 223.125 196.480469 223.117188 C 196.679688 222.183594 196.878906 221.257812 197.195312 220.355469 C 197.246094 220.207031 197.296875 220.058594 197.347656 219.90625 L 197.464844 219.582031 L 197.859375 219.582031 L 197.90625 219.015625 C 198.042969 218.027344 198.449219 217.144531 198.839844 216.238281 " fill-opacity="1" fill-rule="nonzero"/><path fill="#43110f" d="M 192.011719 77.296875 L 192.691406 77.3125 L 193.316406 77.332031 L 193.863281 77.351562 C 194.320312 77.4375 194.320312 77.4375 194.664062 77.707031 C 195.296875 78.539062 195.355469 79.578125 195.5 80.582031 C 195.660156 81.1875 195.835938 81.789062 196.03125 82.382812 C 196.417969 83.609375 196.648438 84.816406 196.835938 86.089844 C 197.183594 88.285156 197.660156 90.433594 198.175781 92.597656 C 198.449219 93.753906 198.683594 94.910156 198.910156 96.078125 C 199.039062 96.707031 199.1875 97.324219 199.34375 97.945312 C 199.765625 99.59375 200.074219 101.089844 200.019531 102.800781 L 199.625 102.601562 C 199.503906 101.988281 199.402344 101.378906 199.308594 100.757812 C 198.984375 98.757812 198.5625 96.785156 198.101562 94.8125 C 197.964844 94.21875 197.828125 93.628906 197.691406 93.039062 L 197.585938 92.582031 C 197.1875 90.867188 196.816406 89.148438 196.445312 87.425781 L 196.34375 86.964844 C 195.929688 85.039062 195.519531 83.113281 195.117188 81.183594 L 195 80.617188 L 194.890625 80.097656 L 194.800781 79.660156 C 194.695312 79.117188 194.605469 78.570312 194.515625 78.027344 L 177.609375 77.832031 L 177.410156 77.4375 C 178.832031 77.40625 180.253906 77.378906 181.671875 77.351562 C 182.332031 77.335938 182.992188 77.324219 183.652344 77.308594 C 186.441406 77.25 189.222656 77.21875 192.011719 77.296875 M 201.003906 109.089844 L 201.199219 109.089844 C 201.652344 113.511719 200.824219 117.359375 199.234375 121.476562 L 198.839844 121.476562 L 198.695312 121.988281 C 198.085938 123.628906 196.847656 125.160156 195.558594 126.339844 C 195.277344 126.585938 195.277344 126.585938 195.105469 126.980469 L 194.710938 126.980469 L 194.566406 127.320312 C 194.050781 128.25 193.21875 128.941406 192.351562 129.535156 C 191.398438 130.078125 190.390625 130.515625 189.382812 130.949219 C 188.933594 131.144531 188.492188 131.355469 188.050781 131.566406 C 187.09375 131.984375 186.09375 132.242188 185.078125 132.484375 L 184.695312 132.585938 C 183.484375 132.882812 182.304688 132.96875 181.058594 133.015625 L 180.480469 133.042969 C 178.070312 133.140625 175.78125 132.792969 173.480469 132.09375 L 173.480469 131.699219 L 173.851562 131.773438 C 178.238281 132.566406 182.757812 132.882812 187.046875 131.414062 C 190.5625 130.101562 193.625 128.050781 196.089844 125.210938 C 198.316406 122.484375 199.792969 119.226562 200.402344 115.765625 C 200.753906 113.550781 200.921875 111.332031 201.003906 109.089844 " fill-opacity="1" fill-rule="nonzero"/><path fill="#f26e69" d="M 187.632812 71.933594 C 188.332031 72.328125 188.988281 72.789062 189.601562 73.308594 L 189.601562 73.503906 L 182.914062 73.503906 L 183.113281 72.914062 C 183.535156 72.648438 183.535156 72.648438 184.058594 72.398438 C 184.230469 72.316406 184.402344 72.234375 184.578125 72.144531 C 185.628906 71.695312 186.527344 71.617188 187.632812 71.933594 " fill-opacity="1" fill-rule="nonzero"/></g></g></g></svg>